<mxfile host="app.diagrams.net" agent="Mozilla/5.0 (Windows NT 10.0; Win64; x64) AppleWebKit/537.36 (KHTML, like Gecko) Chrome/126.0.0.0 Safari/537.36" version="26.1.3">
  <diagram id="Yw3f-h9tpmoQpjcLaHc2" name="第 1 页">
    <mxGraphModel dx="1928" dy="2205" grid="1" gridSize="10" guides="1" tooltips="1" connect="1" arrows="1" fold="1" page="1" pageScale="1" pageWidth="827" pageHeight="1169" math="0" shadow="0">
      <root>
        <mxCell id="0" />
        <mxCell id="1" parent="0" />
        <mxCell id="wSPi3iFdOu_Zd2Hadh0T-1" value="&lt;font style=&quot;font-size: 10px;&quot;&gt;系统用户表&lt;/font&gt;" style="rounded=0;whiteSpace=wrap;html=1;" parent="1" vertex="1">
          <mxGeometry x="210" y="-800" width="120" height="60" as="geometry" />
        </mxCell>
        <mxCell id="wSPi3iFdOu_Zd2Hadh0T-6" value="" style="endArrow=none;html=1;rounded=0;exitX=0.5;exitY=1;exitDx=0;exitDy=0;entryX=0.5;entryY=0;entryDx=0;entryDy=0;" parent="1" source="wSPi3iFdOu_Zd2Hadh0T-1" target="wSPi3iFdOu_Zd2Hadh0T-12" edge="1">
          <mxGeometry width="50" height="50" relative="1" as="geometry">
            <mxPoint x="240" y="-800" as="sourcePoint" />
            <mxPoint x="320" y="-470" as="targetPoint" />
          </mxGeometry>
        </mxCell>
        <mxCell id="wSPi3iFdOu_Zd2Hadh0T-7" value="" style="endArrow=none;html=1;rounded=0;entryX=0;entryY=0.5;entryDx=0;entryDy=0;exitX=1;exitY=0.5;exitDx=0;exitDy=0;" parent="1" edge="1">
          <mxGeometry width="50" height="50" relative="1" as="geometry">
            <mxPoint x="670" y="-720" as="sourcePoint" />
            <mxPoint x="800" y="-720" as="targetPoint" />
          </mxGeometry>
        </mxCell>
        <mxCell id="wSPi3iFdOu_Zd2Hadh0T-8" value="" style="endArrow=none;html=1;rounded=0;entryX=0.5;entryY=0;entryDx=0;entryDy=0;exitX=0.5;exitY=1;exitDx=0;exitDy=0;" parent="1" edge="1">
          <mxGeometry width="50" height="50" relative="1" as="geometry">
            <mxPoint x="610" y="-690" as="sourcePoint" />
            <mxPoint x="840" y="-710" as="targetPoint" />
          </mxGeometry>
        </mxCell>
        <mxCell id="wSPi3iFdOu_Zd2Hadh0T-11" value="&lt;div&gt;&lt;font style=&quot;font-size: 10px;&quot;&gt;1、车辆列表（人车关系表）&lt;/font&gt;&lt;/div&gt;&lt;div&gt;&lt;font style=&quot;font-size: 10px;&quot;&gt;2、分享列表&lt;span style=&quot;background-color: transparent; color: light-dark(rgb(0, 0, 0), rgb(255, 255, 255));&quot;&gt;（分享表）&lt;/span&gt;&lt;/font&gt;&lt;/div&gt;&lt;div&gt;&lt;span style=&quot;background-color: transparent; color: light-dark(rgb(0, 0, 0), rgb(255, 255, 255));&quot;&gt;&lt;font style=&quot;font-size: 10px;&quot;&gt;3、白名单（钥匙表）&lt;/font&gt;&lt;/span&gt;&lt;/div&gt;" style="shape=note;size=20;whiteSpace=wrap;html=1;align=left;" parent="1" vertex="1">
          <mxGeometry x="70" y="-1130" width="200" height="60" as="geometry" />
        </mxCell>
        <mxCell id="wSPi3iFdOu_Zd2Hadh0T-12" value="&lt;font style=&quot;font-size: 10px;&quot;&gt;角色表&lt;/font&gt;" style="rounded=0;whiteSpace=wrap;html=1;" parent="1" vertex="1">
          <mxGeometry x="210" y="-560" width="120" height="60" as="geometry" />
        </mxCell>
        <mxCell id="wSPi3iFdOu_Zd2Hadh0T-13" value="&lt;font style=&quot;font-size: 10px;&quot;&gt;角色与菜单关系表&lt;/font&gt;" style="rounded=0;whiteSpace=wrap;html=1;" parent="1" vertex="1">
          <mxGeometry x="440" y="-560" width="120" height="60" as="geometry" />
        </mxCell>
        <mxCell id="wSPi3iFdOu_Zd2Hadh0T-14" value="&lt;font style=&quot;font-size: 10px;&quot;&gt;菜单表&lt;/font&gt;" style="rounded=0;whiteSpace=wrap;html=1;" parent="1" vertex="1">
          <mxGeometry x="690" y="-560" width="120" height="60" as="geometry" />
        </mxCell>
        <mxCell id="wSPi3iFdOu_Zd2Hadh0T-15" value="&lt;font style=&quot;font-size: 10px;&quot;&gt;岗位表&lt;/font&gt;" style="rounded=0;whiteSpace=wrap;html=1;" parent="1" vertex="1">
          <mxGeometry x="1001" y="-790" width="120" height="60" as="geometry" />
        </mxCell>
        <mxCell id="wSPi3iFdOu_Zd2Hadh0T-16" value="&lt;span style=&quot;font-size: 10px;&quot;&gt;操作日志表&lt;/span&gt;" style="rounded=0;whiteSpace=wrap;html=1;" parent="1" vertex="1">
          <mxGeometry x="720" y="-910" width="120" height="60" as="geometry" />
        </mxCell>
        <mxCell id="wSPi3iFdOu_Zd2Hadh0T-17" value="&lt;span style=&quot;font-size: 10px;&quot;&gt;通知表&lt;/span&gt;" style="rounded=0;whiteSpace=wrap;html=1;" parent="1" vertex="1">
          <mxGeometry x="1280" y="-910" width="120" height="60" as="geometry" />
        </mxCell>
        <mxCell id="wSPi3iFdOu_Zd2Hadh0T-18" value="&lt;span style=&quot;font-size: 10px;&quot;&gt;系统访问记录表&lt;/span&gt;" style="rounded=0;whiteSpace=wrap;html=1;" parent="1" vertex="1">
          <mxGeometry x="720" y="-790" width="120" height="60" as="geometry" />
        </mxCell>
        <mxCell id="wSPi3iFdOu_Zd2Hadh0T-19" value="&lt;font style=&quot;font-size: 10px;&quot;&gt;部门表&lt;/font&gt;" style="rounded=0;whiteSpace=wrap;html=1;" parent="1" vertex="1">
          <mxGeometry x="1001" y="-910" width="120" height="60" as="geometry" />
        </mxCell>
        <mxCell id="wSPi3iFdOu_Zd2Hadh0T-20" value="&lt;font style=&quot;font-size: 10px;&quot;&gt;配置表&lt;/font&gt;" style="rounded=0;whiteSpace=wrap;html=1;" parent="1" vertex="1">
          <mxGeometry x="1280" y="-790" width="120" height="60" as="geometry" />
        </mxCell>
        <mxCell id="wSPi3iFdOu_Zd2Hadh0T-21" value="&lt;font style=&quot;font-size: 10px;&quot;&gt;系统用户与角色关系&lt;/font&gt;" style="rounded=0;whiteSpace=wrap;html=1;" parent="1" vertex="1">
          <mxGeometry x="210" y="-360" width="120" height="60" as="geometry" />
        </mxCell>
        <mxCell id="wSPi3iFdOu_Zd2Hadh0T-22" value="&lt;font style=&quot;font-size: 10px;&quot;&gt;功能表&lt;/font&gt;" style="rounded=0;whiteSpace=wrap;html=1;" parent="1" vertex="1">
          <mxGeometry x="440" y="-360" width="120" height="60" as="geometry" />
        </mxCell>
        <mxCell id="wSPi3iFdOu_Zd2Hadh0T-23" value="" style="endArrow=none;html=1;rounded=0;entryX=0;entryY=0.5;entryDx=0;entryDy=0;exitX=1;exitY=0.5;exitDx=0;exitDy=0;" parent="1" source="wSPi3iFdOu_Zd2Hadh0T-12" target="wSPi3iFdOu_Zd2Hadh0T-13" edge="1">
          <mxGeometry width="50" height="50" relative="1" as="geometry">
            <mxPoint x="280" y="-660" as="sourcePoint" />
            <mxPoint x="510" y="-610" as="targetPoint" />
          </mxGeometry>
        </mxCell>
        <mxCell id="wSPi3iFdOu_Zd2Hadh0T-24" value="&lt;font style=&quot;font-size: 10px;&quot;&gt;url&lt;/font&gt;&lt;span style=&quot;font-size: 10px; background-color: transparent; color: light-dark(rgb(0, 0, 0), rgb(255, 255, 255));&quot;&gt;表&lt;/span&gt;" style="rounded=0;whiteSpace=wrap;html=1;" parent="1" vertex="1">
          <mxGeometry x="690" y="-370" width="120" height="60" as="geometry" />
        </mxCell>
        <mxCell id="wSPi3iFdOu_Zd2Hadh0T-25" value="" style="endArrow=none;html=1;rounded=0;entryX=0;entryY=0.5;entryDx=0;entryDy=0;exitX=1;exitY=0.5;exitDx=0;exitDy=0;" parent="1" source="wSPi3iFdOu_Zd2Hadh0T-13" target="wSPi3iFdOu_Zd2Hadh0T-14" edge="1">
          <mxGeometry width="50" height="50" relative="1" as="geometry">
            <mxPoint x="270" y="-360" as="sourcePoint" />
            <mxPoint x="450" y="-520" as="targetPoint" />
          </mxGeometry>
        </mxCell>
      </root>
    </mxGraphModel>
  </diagram>
</mxfile>
